/* XPM */
static char * hide_pressed_xpm[] = {
"14 15 3 1",
" 	c None",
".	c #2C2C2C",
"+	c #AA0000",
"..............",
"..............",
"..............",
"..............",
"..............",
"..............",
"..............",
"..............",
"...++++++++...",
"...++++++++...",
"..............",
"..............",
"..............",
"..............",
".............."};
