/* XPM */
static char * title_3_active_xpm[] = {
"5 24 3 1",
" 	c None",
".	c #2C2C2C",
"+	c #1A1A1A",
"+++++",
".....",
".....",
".....",
".....",
".....",
".....",
".....",
".....",
".....",
".....",
".....",
".....",
".....",
".....",
".....",
".....",
".....",
".....",
".....",
".....",
".....",
".....",
"....."};
