/* XPM */
static char * top_left_active_xpm[] = {
"8 24 6 1",
" 	c None",
".	c #2C2C2C",
"+	c #1A1A1A",
"@	c #2A2A2A",
"#	c #1C1C1C",
"$	c #2B2B2B",
"     +++",
"   +#@..",
"  +$....",
" +$.....",
" #......",
"+@......",
"+.......",
"+.......",
"+.......",
"+.......",
"+.......",
"+.......",
"+.......",
"+.......",
"+.......",
"+.......",
"+.......",
"+.......",
"+.......",
"+.......",
"+.......",
"+.......",
"+.......",
"+......."};
